<?xml version="1.0" encoding="UTF-8"?>
<svg id="_レイヤー_1" data-name="レイヤー_1" xmlns="http://www.w3.org/2000/svg" xmlns:xlink="http://www.w3.org/1999/xlink" version="1.1" viewBox="0 0 2383.9 372.9">
  <!-- Generator: Adobe Illustrator 30.1.0, SVG Export Plug-In . SVG Version: 2.1.1 Build 136)  -->
  <defs>
    <style>
      .st0 {
        fill: none;
      }

      .st1 {
        fill: #eed600;
      }

      .st2 {
        fill: #3c4641;
      }

      .st3 {
        fill: #231815;
      }

      .st4 {
        fill: #fff;
      }

      .st5 {
        fill: #161e87;
      }

      .st6 {
        fill: #4a4eda;
      }

      .st7 {
        clip-path: url(#clippath);
      }
    </style>
    <clipPath id="clippath">
      <circle class="st0" cx="675.4" cy="183" r="144.1"/>
    </clipPath>
  </defs>
  <g class="st7">
    <g>
      <path class="st6" d="M991.4,602c31.9,0,57.8-25.7,58.3-57.6,1.5-107.4-88.2-210-88.2-298.6,0-167.9-66.8-218.7-241.9-218.7s-227.8,97.8-227.8,167.2,21.2,96.8,50.4,117.3c7.6,5.4,12.2,14.1,12.2,23.4v118c0,82.3,38,148.9,148.9,148.9h288Z"/>
      <path class="st1" d="M637.5,228.5l-20.3,14.5c-7.8,5.5-3.8,17.8,5.7,17.8h41.5c9.6,0,13.5-12.5,5.5-17.9l-21.2-14.5c-3.4-2.3-7.9-2.3-11.2.1Z"/>
      <g>
        <g>
          <path class="st4" d="M633.3,185.5c0-23.7-15.3-40-38-40s-38,16.3-38,40,15.3,40,38,40,38-16.3,38-40Z"/>
          <path class="st2" d="M569,185.5c0-11.7,8.7-20.4,20.4-20.4s20.4,8.7,20.4,20.4-8.7,20.4-20.4,20.4-20.4-8.7-20.4-20.4Z"/>
        </g>
        <g>
          <path class="st4" d="M758,185.5c0-23.7-15.3-40-38-40s-38,16.3-38,40,15.3,40,38,40,38-16.3,38-40Z"/>
          <path class="st2" d="M693.3,185.5c0-11.7,8.7-20.4,20.4-20.4s20.4,8.7,20.4,20.4-8.7,20.4-20.4,20.4-20.4-8.7-20.4-20.4Z"/>
        </g>
      </g>
      <path class="st1" d="M831,173.8h1c29.1,0,52.7,23.6,52.7,52.7v4.7c0,31.8-25.8,57.6-57.6,57.6h-3.8c-29.6,0-53.7-24-53.7-53.7h0c0-33.9,27.5-61.4,61.4-61.4Z"/>
      <path class="st5" d="M531.3,83.6c22.1,4.7,83.4,0,144.1,18.1,156.9,46.7,153.6-13.4,227-33.4-43.8-21.6-103.4-30.3-181.4-30.3s-147.9,18.6-189.8,45.6Z"/>
      <path class="st5" d="M733.4,27.3c29.8-.5,72.2-4.4,94.6-16.6-3.4,12.7-5.9,19.5-5.9,19.5,7.3,4.9,16.6,9.8,39.5,17.1-129.3,2-127.8-20.5-128.3-20Z"/>
    </g>
  </g>
  <path class="st3" d="M424.5,183.8l71-99.9c3.7-5.2,0-12.3-6.4-12.3h-59.3c-2.5,0-4.9,1.2-6.4,3.3l-35,49.2c-3.1,4.4-9.6,4.4-12.8,0l-35-49.2c-1.5-2.1-3.8-3.3-6.4-3.3h-59.3c-6.4,0-10.1,7.2-6.4,12.3l71,99.9c1.9,2.7,1.9,6.3,0,9.1l-71.1,100.1c-3.7,5.2,0,12.3,6.4,12.3h59.3c2.5,0,4.9-1.2,6.4-3.3l35.1-49.4c3.1-4.4,9.6-4.4,12.8,0l35.1,49.4c1.5,2.1,3.8,3.3,6.4,3.3h59.3c6.4,0,10.1-7.2,6.4-12.3l-71.1-100.1c-1.9-2.7-1.9-6.3,0-9.1Z"/>
  <path class="st3" d="M189.2,208.1c0,22.2-17.8,40.2-39.8,40.6-22.9.5-41.5-18.5-41.5-41.4V79.3c0-4.4-3.5-7.9-7.9-7.9h-47c-4.4,0-7.9,3.5-7.9,7.9v128.8c0,13.9,2.7,27.5,8.2,40.3,5.2,12.3,12.7,23.4,22.1,32.9,9.5,9.5,20.5,16.9,32.9,22.1,12.8,5.4,26.3,8.2,40.3,8.2s27.5-2.7,40.3-8.2c12.3-5.2,23.4-12.7,32.9-22.1,9.5-9.5,16.9-20.5,22.1-32.9,5.4-12.8,8.2-26.3,8.2-40.3V78.2c0-3.7-3-6.7-6.7-6.7h-49.3c-3.7,0-6.7,3-6.7,6.7v129.9Z"/>
  <path class="st0" d="M937.5,183h48.7c8.2,0,14-2.7,17.9-7.8,3.7-5.2,5.7-11,5.7-17.7s-.7-6.7-1.8-10c-1.2-3.3-3-6.2-5.3-8.7-2.3-2.5-5.2-4.7-8.7-6.2-3.5-1.7-7.3-2.3-11.8-2.3v.2h-44.6c-2.2,0-4,.7-5.5,2.2-1.5,1.5-2.2,3.3-2.2,5.3v37.5c0,2.2.7,3.8,2.2,5.3,1.5,1.5,3.3,2.2,5.5,2.2Z"/>
  <path class="st3" d="M868.7,73.9c-1.5,1.5-2.2,3.3-2.2,5.5v218.4c0,2.2.7,4,2.2,5.5,1.3,1.5,3.2,2.2,5.3,2.2h48.2c2,0,3.8-.7,5.3-2.2s2.2-3.3,2.2-5.5v-47.6c0-2.2.7-4,2.2-5.5,1.5-1.5,3.3-2.2,5.5-2.2h42.1c15.7,0,29.2-2.2,40.9-6.5,11.7-4.3,21.4-10.3,29.2-17.9,7.8-7.5,13.7-16.5,17.5-26.9,3.8-10.3,5.8-21.5,5.8-33.4s-2.3-23-6.8-33.5c-4.5-10.5-10.7-19.7-18.5-27.5-7.8-7.8-17-14-27.5-18.5s-21.9-6.7-33.7-6.7h-112.1c-2.2,0-4,.7-5.5,2.2ZM929.8,138c0-2,.7-3.8,2.2-5.3,1.5-1.5,3.3-2.2,5.5-2.2h44.6v-.2c4.5,0,8.3.7,11.8,2.3,3.5,1.5,6.3,3.7,8.7,6.2,2.3,2.5,4.2,5.3,5.3,8.7,1.2,3.3,1.8,3.3,1.8,10s-2,12.5-5.7,17.7c-3.8,5.2-9.7,7.8-17.9,7.8h-48.7c-2.2,0-4-.7-5.5-2.2-1.5-1.5-2.2-3.2-2.2-5.3v-37.5Z"/>
  <path class="st3" d="M1265.3,71.7h-162.7c-2.2,0-4,.7-5.5,2.2-1.5,1.5-2.2,3.3-2.2,5.5v218.4c0,2.2.7,4,2.2,5.5,1.5,1.5,3.3,2.2,5.5,2.2h162.7c2.2,0,4-.7,5.5-2.2s2.2-3.3,2.2-5.5v-44.1c0-2.2-.7-4-2.2-5.5s-3.3-2.2-5.5-2.2h-99.3c-2.2,0-4-.7-5.5-2.2-1.5-1.5-2.2-3.3-2.2-5.5v-12.2c0-2.2.7-4,2.2-5.5,1.5-1.5,3.3-2.2,5.5-2.2h86.6c2.2,0,4-.7,5.5-2.2,1.5-1.5,2.2-3.3,2.2-5.5v-44.1c0-2.2-.7-4-2.2-5.5-1.5-1.3-3.3-2.2-5.5-2.2h-86.6c-2.2,0-4-.7-5.5-2.2-1.5-1.5-2.2-3.3-2.2-5.5v-13.3c0-2.2.7-4,2.2-5.5,1.5-1.5,3.3-2.2,5.5-2.2h99.3c2.2,0,4-.7,5.5-2.2s2.2-3.3,2.2-5.5v-43.4c0-2.2-.7-4-2.2-5.5s-3.3-2.2-5.5-2.2Z"/>
  <path class="st3" d="M1315.3,105.2l40.7-28.9c2.4-1.7,5.4-1.7,7.8-.3-1.1-2.6-3.6-4.4-6.5-4.4h-49.1c-3.9,0-7.1,3.2-7.1,7.1v219.6c0,3.9,3.2,7.1,7.1,7.1h49.1c3.9,0,7.1-3.2,7.1-7.1v-112l-50.6-71.3c-2.3-3.2-1.5-7.6,1.7-9.9Z"/>
  <path class="st3" d="M1501.7,71.7h-49.1c-3.9,0-7.1,3.2-7.1,7.1v111.5l52.7,74.2c2.3,3.2,1.5,7.6-1.7,9.9l-40.7,28.9c-2.8,2-6.5,1.7-8.9-.6,1.3,1.7,3.3,2.8,5.6,2.8h49.1c3.9,0,7.1-3.2,7.1-7.1V78.8c0-3.9-3.2-7.1-7.1-7.1Z"/>
  <path class="st3" d="M1938,208.4c0,22.2-17.8,40.2-39.8,40.6s-41.5-18.5-41.5-41.4V79.6c0-4.4-3.5-7.9-7.9-7.9h-47c-4.4,0-7.9,3.5-7.9,7.9v128.8c0,13.9,2.7,27.5,8.2,40.3,5.2,12.3,12.7,23.4,22.1,32.9,9.5,9.5,20.5,16.9,32.9,22.1,12.8,5.4,26.3,8.2,40.3,8.2s27.5-2.7,40.3-8.2c12.3-5.2,23.4-12.7,32.9-22.1,9.5-9.5,16.9-20.5,22.1-32.9,5.4-12.8,8.2-26.3,8.2-40.3V78.5c0-3.7-3-6.7-6.7-6.7h-49.3c-3.7,0-6.7,3-6.7,6.7v129.9Z"/>
  <path class="st3" d="M2037.5,71.7h49.1c3.9,0,7.1,3.2,7.1,7.1v219.6c0,3.9-3.2,7.1-7.1,7.1h-49.1c-3.9,0-7.1-3.2-7.1-7.1V78.8c0-3.9,3.2-7.1,7.1-7.1Z"/>
  <path class="st3" d="M1445.6,190.3l-79.7-112.3c-.6-.8-1.3-1.5-2.1-2,.3.8.5,1.8.5,2.7v107.6l81.8,115.2c.3.4.6.7.9,1.1-.9-1.2-1.4-2.7-1.4-4.3v-108.1Z"/>
  <path class="st3" d="M1363.7,76.1c-2.3-1.4-5.4-1.4-7.8.3l-40.7,28.9c-3.2,2.3-3.9,6.7-1.7,9.9l50.6,71.3v-107.6c0-1-.2-1.9-.5-2.7Z"/>
  <path class="st3" d="M1456,303.3l40.7-28.9c3.2-2.3,3.9-6.7,1.7-9.9l-52.7-74.2v108.1c0,1.6.5,3.1,1.4,4.3,2.4,2.3,6.1,2.6,8.9.6Z"/>
  <path class="st3" d="M2137.3,105.2l40.7-28.9c2.4-1.7,5.4-1.7,7.8-.3-1.1-2.6-3.6-4.4-6.5-4.4h-49.1c-3.9,0-7.1,3.2-7.1,7.1v219.6c0,3.9,3.2,7.1,7.1,7.1h49.1c3.9,0,7.1-3.2,7.1-7.1v-112l-50.6-71.3c-2.3-3.2-1.5-7.6,1.7-9.9Z"/>
  <path class="st3" d="M2323.7,71.7h-49.1c-3.9,0-7.1,3.2-7.1,7.1v111.5l52.7,74.2c2.3,3.2,1.5,7.6-1.7,9.9l-40.7,28.9c-2.8,2-6.5,1.7-8.9-.6,1.3,1.7,3.3,2.8,5.6,2.8h49.1c3.9,0,7.1-3.2,7.1-7.1V78.8c0-3.9-3.2-7.1-7.1-7.1Z"/>
  <path class="st3" d="M2267.5,190.3l-79.7-112.3c-.6-.8-1.3-1.5-2.1-2,.3.8.5,1.8.5,2.7v107.6l81.8,115.2c.3.4.6.7.9,1.1-.9-1.2-1.4-2.7-1.4-4.3v-108.1Z"/>
  <path class="st3" d="M2185.7,76.1c-2.3-1.4-5.4-1.4-7.8.3l-40.7,28.9c-3.2,2.3-3.9,6.7-1.7,9.9l50.6,71.3v-107.6c0-1-.2-1.9-.5-2.7Z"/>
  <path class="st3" d="M2277.9,303.3l40.7-28.9c3.2-2.3,3.9-6.7,1.7-9.9l-52.7-74.2v108.1c0,1.6.5,3.1,1.4,4.3,2.4,2.3,6.1,2.6,8.9.6Z"/>
  <path class="st3" d="M1737,188.6h-32.1c-31.7,0-57.4,25.7-57.4,57.4h0c0,1.5-1.3,2.8-2.9,2.6-5.4-.7-10.6-2.2-15.5-4.6-7-3.2-13.2-7.7-18.4-13.2-5.3-5.5-9.3-12-12.3-19.2-3-7.3-4.5-14.9-4.5-23s1.5-15.5,4.5-22.9c3-7.3,7.2-13.7,12.3-19.2,5.2-5.3,11.3-9.7,18.4-13,7-3.3,14.5-5,22.4-5s15.4,1.7,22.4,5c7,3.2,13.2,7.5,18.5,13,3.7,3.8,6.8,8,9.3,12.6s3.7,3.7,6.3,3.7h52.2c4.8,0,8.3-4.6,6.9-9.3s-2.7-8-4.4-11.9c-6.3-14.7-15-27.5-26-38.5-11-11-23.9-19.7-38.5-26-14.7-6.3-30.4-9.5-46.9-9.5s-32.2,3.2-46.9,9.5c-14.7,6.3-27.5,15-38.4,26-10.8,11-19.5,23.9-25.9,38.5-6.3,14.7-9.5,30.2-9.5,46.9s3.2,32.2,9.5,46.9c6.3,14.7,15,27.5,25.9,38.5,10.8,11,23.7,19.7,38.4,26,14.7,6.3,30.4,9.5,46.9,9.5s32.2-3.2,46.9-9.5c14.7-6.3,27.5-15,38.5-26,11-11,19.7-23.9,26-38.5,5.3-12.3,8.4-25.3,9.3-38.9.3-4.3-3.2-8-7.6-8h-27.5Z"/>
</svg>