<?xml version="1.0" encoding="UTF-8"?>
<svg id="_レイヤー_1" data-name="レイヤー_1" xmlns="http://www.w3.org/2000/svg" xmlns:xlink="http://www.w3.org/1999/xlink" version="1.1" viewBox="0 0 755.3 804.7">
  <!-- Generator: Adobe Illustrator 30.1.0, SVG Export Plug-In . SVG Version: 2.1.1 Build 136)  -->
  <defs>
    <style>
      .st0 {
        fill: #eed600;
      }

      .st1 {
        fill: none;
        stroke: #161e87;
        stroke-linecap: round;
        stroke-linejoin: round;
        stroke-width: 15.3px;
      }

      .st2 {
        fill: #3c4641;
      }

      .st3 {
        fill: #fff;
      }

      .st4 {
        fill: #161e87;
      }

      .st5 {
        fill: #f5f6ff;
      }

      .st6 {
        fill: #4a4eda;
      }

      .st7 {
        fill: url(#_名称未設定グラデーション_18);
      }
    </style>
    <linearGradient id="_名称未設定グラデーション_18" data-name="名称未設定グラデーション 18" x1="531.3" y1="581.5" x2="525.4" y2="455.8" gradientUnits="userSpaceOnUse">
      <stop offset="0" stop-color="#161e87"/>
      <stop offset="1" stop-color="#4a4eda"/>
    </linearGradient>
  </defs>
  <path class="st6" d="M661.8,783.1c40.7,0,73.6-32.7,74.2-73.4,1.9-136.7-112.3-267.3-112.3-380.2,0-213.8-85.1-278.4-308-278.4S25.7,175.6,25.7,264s26.9,123.3,64.2,149.4c9.7,6.8,15.6,17.9,15.6,29.8v150.3c0,104.7,48.4,189.6,189.6,189.6h366.7Z"/>
  <path class="st7" d="M453.7,425.4v90.4c0,57.6,46.7,104.4,104.4,104.4h25c8.2,0,14.9-6.7,14.9-14.9v-197.7s-90.1,3.1-127.8,2c-9-.3-16.4,6.9-16.4,15.8Z"/>
  <path class="st0" d="M212.6,290l-35.9,25.7c-7.3,5.2-3.6,16.7,5.4,16.7h73.5c9.1,0,12.7-11.7,5.2-16.8l-37.6-25.7c-3.2-2.2-7.4-2.1-10.6.1Z"/>
  <g>
    <g>
      <path class="st3" d="M202.2,242.5c0-30.1-19.5-50.9-48.4-50.9s-48.4,20.8-48.4,50.9,19.5,50.9,48.4,50.9,48.4-20.8,48.4-50.9Z"/>
      <path class="st2" d="M120.4,242.5c0-14.9,11.1-26,26-26s26,11.1,26,26-11.1,26-26,26-26-11.1-26-26Z"/>
    </g>
    <g>
      <path class="st3" d="M370.1,242.5c0-30.1-19.5-50.9-48.4-50.9s-48.4,20.8-48.4,50.9,19.5,50.9,48.4,50.9,48.4-20.8,48.4-50.9Z"/>
      <path class="st2" d="M287.7,242.5c0-14.9,11.1-26,26-26s26,11.1,26,26-11.1,26-26,26-26-11.1-26-26Z"/>
    </g>
  </g>
  <path class="st0" d="M434.2,244.4h3.2c15.3,0,27.6,12.4,27.6,27.6v13.9c0,22.9-18.6,41.5-41.5,41.5h-11.2c-16.8,0-30.4-13.6-30.4-30.4v-.5c0-28.8,23.4-52.2,52.2-52.2Z"/>
  <path class="st4" d="M124.2,100.6c24.2,5.1,49.8,8.4,76.6,9,144.7,3.2,232.9-3.5,313.2-25.3-47.9-23.7-113-33.1-198.3-33.1s-145.7,19.9-191.5,49.5Z"/>
  <path class="st4" d="M333.3,51.3c37.9-.6,91.9-5.6,120.5-21.1-4.3,16.1-7.5,24.8-7.5,24.8,9.3,6.2,21.1,12.4,50.3,21.7-164.6,2.5-162.7-26.1-163.3-25.5Z"/>
  <path class="st1" d="M470,409.6c-9-.3-16.4,6.9-16.4,15.8v80.3c0,63.2,51.2,114.5,114.5,114.5h0c16.4,0,29.7-13.3,29.7-29.7v-40.1"/>
  <path class="st5" d="M153.8,633.1v-139.2c0-37.4,30.3-67.7,67.7-67.7h59c37.4,0,67.7,30.3,67.7,67.7v153s-194.5-13.8-194.5-13.8Z"/>
  <path class="st5" d="M259.4,732.6c-29.8,0-52.6-6.6-71.7-18.8s-33.9-37.3-33.9-62.6v-127.8c0-53.7,43.5-97.2,97.2-97.2h0c53.7,0,97.2,43.5,97.2,97.2v143.6c0,36.2-29.3,65.5-65.5,65.5h-23.4Z"/>
</svg>